Coordinates
version=1
nRows=4
nColumns=63
inDegrees=yes

Units are S.I. units (second, meters, Newtons, ...)
If the header above contains a line with 'inDegrees', this indicates whether rotational values are in degrees (yes) or radians (no).

endheader
time	pelvis_tilt	pelvis_list	pelvis_rotation	pelvis_tx	pelvis_ty	pelvis_tz	hip_flexion_r	hip_adduction_r	hip_rotation_r	knee_angle_r	knee_angle_r_beta	ankle_angle_r	subtalar_angle_r	mtp_angle_r	hip_flexion_l	hip_adduction_l	hip_rotation_l	knee_angle_l	knee_angle_l_beta	ankle_angle_l	subtalar_angle_l	mtp_angle_l	L5_S1_Flex_Ext	L5_S1_Lat_Bending	L5_S1_axial_rotation	L4_L5_Flex_Ext	L4_L5_Lat_Bending	L4_L5_axial_rotation	L3_L4_Flex_Ext	L3_L4_Lat_Bending	L3_L4_axial_rotation	L2_L3_Flex_Ext	L2_L3_Lat_Bending	L2_L3_axial_rotation	L1_L2_Flex_Ext	L1_L2_Lat_Bending	L1_L2_axial_rotation	L1_T12_Flex_Ext	L1_T12_Lat_Bending	L1_T12_axial_rotation	Abs_r3	Abs_r2	Abs_r1	Abs_t1	Abs_t2	neck_flexion	neck_bending	neck_rotation	arm_flex_r	arm_add_r	arm_rot_r	elbow_flex_r	pro_sup_r	wrist_flex_r	wrist_dev_r	arm_flex_l	arm_add_l	arm_rot_l	elbow_flex_l	pro_sup_l	wrist_flex_l	wrist_dev_l
      4.88888889	     -3.75274456	     -1.23910443	     97.93849786	      0.30168413	      0.86841291	      0.68986960	     -8.45453333	      0.35069127	      9.72903504	      0.33532095	      0.00585245	     31.92316012	     -1.44788216	      0.00000000	      5.10070128	     -1.17060020	     -3.53420707	     24.26676568	      0.42353496	     39.75519261	      1.59697969	      0.00000000	      0.12896705	      0.42150840	     -0.40927734	      0.23950471	      0.56060618	     -0.43485717	      0.21187996	      1.02485553	     -0.43485717	      0.14739644	      1.02485553	     -0.35811767	      0.11975880	      0.85953994	     -0.33253784	      0.07369177	      0.65291652	     -0.30695800	      0.92119873	      4.76818736	     -2.27627777	      0.00000000	      0.00000000	      8.93340345	     -1.58613459	     12.71525651	     -3.63555576	    -18.27910526	     27.51735485	     84.05702872	     62.31106448	     50.44225026	     31.55670219	     12.34270547	    -14.56220334	    107.77144773	     70.86500121	     70.63069548	      7.76471110	     22.25345457
      4.91111111	     -3.68599637	     -1.43112319	     97.51120048	      0.30211332	      0.86779467	      0.68938399	     -8.19778949	      0.34119220	     10.26957952	      0.31919921	      0.00557108	     32.08429107	     -1.54417265	      0.00000000	      5.16422993	     -1.23932699	     -3.95431076	     24.11267139	      0.42084551	     39.86892176	      1.61300469	      0.00000000	      0.12344676	      0.40268983	     -0.23017541	      0.22925297	      0.53557748	     -0.24456137	      0.20281068	      0.97910006	     -0.24456137	      0.14108730	      0.97910006	     -0.20140348	      0.11463266	      0.82116510	     -0.18701752	      0.07053748	      0.62376655	     -0.17263156	      0.88176784	      4.55530792	     -1.28016658	      0.00000000	      0.00000000	      9.67712026	     -0.74377953	     12.38454988	     -4.52265407	    -18.34797058	     26.54647146	     84.65495810	     61.02272264	     49.43199067	     32.10017887	     13.19680858	    -13.69994159	    111.31688655	     70.29308168	     51.17141760	     -0.95439807	      6.32496120
      4.93333333	     -3.62452006	     -1.66387551	     97.12814895	      0.30238341	      0.86738482	      0.68908618	     -7.89968697	      0.32156144	     10.44597210	      0.30711165	      0.00536011	     32.23556602	     -1.22384252	      0.00000000	      5.26027274	     -1.25375530	     -4.20565280	     23.89598870	      0.41706368	     39.87128573	      1.43076876	      0.00000000	      0.12398442	      0.39568229	     -0.05325990	      0.23025146	      0.52625745	     -0.05658865	      0.20369400	      0.96206192	     -0.05658865	      0.14170179	      0.96206192	     -0.04660242	      0.11513193	      0.80687533	     -0.04327367	      0.07084470	      0.61291187	     -0.03994493	      0.88560829	      4.47603722	     -0.29621561	      0.00000000	      0.00000000	     10.38347417	     -0.66386096	     11.97315757	     -5.51272584	    -18.31775332	     25.01803689	     85.33036147	     61.02801206	     49.62432695	     32.33124448	     13.33434678	    -15.32950927	    103.55305459	     73.45452907	     47.20412771	     -1.82223263	      1.68730532
      4.95555556	     -3.54290652	     -1.82682993	     96.78260273	      0.30275621	      0.86685837	      0.68909327	     -7.66244111	      0.34026568	     10.75074020	      0.29730371	      0.00518893	     32.31339161	     -1.12544475	      0.00000000	      5.36899034	     -1.36235219	     -4.62518848	     23.82454650	      0.41581678	     40.02573624	      1.59760689	      0.00000000	      0.10644500	      0.39746200	      0.06968891	      0.19767902	      0.52862446	      0.07404446	      0.17487850	      0.96638910	      0.07404446	      0.12165599	      0.96638910	      0.06097779	      0.09884483	      0.81050451	      0.05662224	      0.06082268	      0.61566863	      0.05226668	      0.76032602	      4.49616961	      0.38758879	      0.00000000	      0.00000000	     11.09689540	     -0.46598677	     12.39912441	     -6.12035675	    -18.05129456	     23.38078609	     85.59245974	     62.25933573	     52.81086026	     32.29625596	     11.30985334	    -17.38022300	     85.24994571	     78.59610947	     61.05697530	     -1.83740242	      6.29820364
